<?xml version="1.0" encoding="UTF-8" standalone="no"?>
<!-- Generator: Adobe Illustrator 16.0.0, SVG Export Plug-In . SVG Version: 6.00 Build 0)  -->

<svg style="fill:#ffffff"
   version="1.1"
   id="Calque_1"
   x="0px"
   y="0px"
   width="600"
   height="307.07437"
   viewBox="5 2.5 600 307.07437"
   enable-background="new 5 2.5 110 65"
   xml:space="preserve"
   sodipodi:docname="Logo Julbo.svg"
   inkscape:version="1.2 (dc2aeda, 2022-05-15)"
   xmlns:inkscape="http://www.inkscape.org/namespaces/inkscape"
   xmlns:sodipodi="http://sodipodi.sourceforge.net/DTD/sodipodi-0.dtd"
   xmlns="http://www.w3.org/2000/svg"
   xmlns:svg="http://www.w3.org/2000/svg"><defs
   id="defs159" /><sodipodi:namedview
   id="namedview157"
   pagecolor="#ffffff"
   bordercolor="#666666"
   borderopacity="1.0"
   inkscape:showpageshadow="2"
   inkscape:pageopacity="0.0"
   inkscape:pagecheckerboard="0"
   inkscape:deskcolor="#d1d1d1"
   showgrid="false"
   inkscape:zoom="0.90769231"
   inkscape:cx="52.330508"
   inkscape:cy="25.338983"
   inkscape:window-width="1440"
   inkscape:window-height="900"
   inkscape:window-x="0"
   inkscape:window-y="0"
   inkscape:window-maximized="0"
   inkscape:current-layer="Calque_1" />
<path
   d="m 72.077918,165.12478 -20.883139,28.79413 197.567971,-0.0473 C 474.81149,194.17907 534.46324,156.20274 565.33859,85.961603 571.81284,71.27482 594.59982,23.938918 605,2.5 601.35787,2.5236502 402.33541,3.0735177 402.33541,3.0735177 211.54323,3.0616926 180.25991,35.468397 151.5249,88.900142 c 0,0 -6.44469,12.244898 -8.65007,16.726618 2.95037,0.10642 14.00684,0.17737 14.00684,0.17737 59.30291,0.0946 111.91281,1.85063 137.91622,-20.617072 11.03874,-9.560598 18.83148,-31.318795 29.07794,-41.56525 23.90445,-23.957666 42.09146,-24.330157 125.12145,-24.211905 1.33032,-0.02956 11.04465,-0.01774 12.18577,0 -4.49945,9.069856 -11.93744,23.827589 -17.13458,34.819026 -4.02053,7.792745 -7.45573,16.259522 -10.66624,22.591866 0,-0.02956 -10.89684,20.392395 -10.89684,20.392395 -39.05241,71.3527 -142.10231,67.07201 -278.47535,67.94115 z"
   id="path132"
   style="stroke-width:5.91255" />
<g
   id="g154"
   transform="matrix(5.9125533,0,0,5.9125533,-46.368263,-52.309369)">
	<g
   id="g144">
		<polygon
   points="52.357,45.665 49.248,45.666 44.782,61.192 47.877,61.19 "
   id="polygon134" />
		<path
   d="m 54.292,45.681 -4.464,15.509 12.51,-0.004 c 3.275,-10e-4 5.754,-1.288 6.302,-3.276 l 0.855,-2.864 c 0.004,-0.017 0.1,-0.347 0.1,-0.67 -0.002,-0.331 -0.118,-0.83 -0.337,-1.169 -0.541,-0.837 -1.665,-1.295 -3.17,-1.295 l -7.914,0.004 c -1.649,0.001 -2.651,0.533 -2.825,0.861 0.339,-1.277 2.046,-7.094 2.046,-7.094 z m -0.01,10.783 c 0.529,-1.629 1.101,-2.196 4.557,-2.198 l 6.338,-0.004 c 0.966,0 1.327,0.467 1.044,1.513 0,0.004 -0.361,1.243 -0.361,1.243 -0.586,1.818 -2.744,1.815 -3.555,1.815 0,0 -8.432,0.003 -8.696,0 0.073,-0.235 0.673,-2.369 0.673,-2.369 z"
   id="path136" />
		<path
   d="m 25.61,45.649 h -0.077 c 0,0 -2.358,8.287 -3.29,11.536 -0.354,1.055 -1.287,1.492 -2.305,1.492 -2.774,0.002 -8.502,0.004 -8.502,0.004 l -2.748,2.525 10.368,-0.011 c 3.279,-0.004 5.758,-1.291 6.307,-3.281 -0.003,0.007 0,-0.008 2.182,-7.558 l 1.358,-4.708 -0.127,-0.001 z"
   id="path138" />
		<path
   d="m 42.186,51.909 c 0,0 -1.938,6.778 -1.974,6.92 -0.149,0 -8.547,0.004 -8.547,0.004 -0.469,0 -0.915,-0.081 -1.082,-0.342 C 30.5,58.355 30.421,58.198 30.485,57.943 30.484,57.951 32.22,51.92 32.22,51.92 l -3.189,-0.002 -1.786,6.139 c -0.002,0.017 -0.089,0.311 -0.101,0.673 -0.013,0.338 0.121,0.823 0.335,1.168 0.541,0.837 1.67,1.294 3.168,1.292 l 12.21,0.002 2.689,-9.286 z"
   id="path140" />
		<path
   d="m 77,51.905 c -3.282,0.002 -5.76,1.29 -6.306,3.281 l -0.852,2.86 c -0.193,0.656 -0.105,1.31 0.231,1.84 0.543,0.838 1.669,1.294 3.172,1.295 l 7.89,-0.005 c 3.276,0 5.519,-1.287 6.071,-3.276 0,0.004 0.002,-0.004 0.851,-2.864 0.196,-0.66 0.198,-1.312 -0.148,-1.843 -0.565,-0.869 -1.403,-1.292 -2.847,-1.292 z m -0.126,2.357 c 0,0 7.208,-0.004 8.276,-0.004 -0.075,0.23 -0.693,2.37 -0.693,2.37 -0.449,1.632 -1.021,2.199 -4.476,2.203 l -5.543,0.002 c -1.42,0 -1.491,-0.848 -1.19,-1.832 0.006,-0.004 0.27,-0.911 0.273,-0.925 0.583,-1.812 2.542,-1.814 3.353,-1.814 z"
   id="path142" />
	</g>
	<g
   id="g152">
		<g
   id="g148">
			<path
   d="m 91.038,54.568 -0.383,0.002 0.388,-1.873 0.833,0.002 c 0.143,-0.002 0.254,0.017 0.336,0.041 0.077,0.032 0.143,0.083 0.19,0.165 0.052,0.077 0.076,0.171 0.077,0.284 0,0.16 -0.048,0.287 -0.146,0.394 -0.093,0.1 -0.2,0.161 -0.39,0.185 0.047,0.045 0.282,0.449 0.453,0.801 l -0.414,0.002 c -0.068,-0.148 -0.405,-0.718 -0.466,-0.758 -0.035,-0.028 -0.07,-0.019 -0.16,-0.019 h -0.158 z m 0.22,-1.057 0.209,-0.002 c 0.207,0 0.343,-0.011 0.415,-0.034 0.066,-0.022 0.12,-0.066 0.158,-0.114 0.036,-0.056 0.056,-0.113 0.054,-0.171 0.004,-0.064 -0.027,-0.115 -0.076,-0.149 -0.039,-0.023 -0.113,-0.03 -0.227,-0.03 l -0.421,0.002 z"
   id="path146" />
		</g>
		<path
   d="m 91.576,55.307 c -0.896,-0.001 -1.622,-0.724 -1.624,-1.618 0,-0.892 0.725,-1.623 1.622,-1.626 0.895,0.003 1.618,0.732 1.618,1.624 0,0.894 -0.723,1.62 -1.616,1.62 z m -0.002,-2.86 c -0.688,0 -1.241,0.558 -1.241,1.241 0,0.683 0.556,1.245 1.243,1.246 0.681,0 1.239,-0.563 1.237,-1.246 0,-0.685 -0.556,-1.241 -1.239,-1.241 z"
   id="path150" />
	</g>
</g>
</svg>
