<svg xmlns="http://www.w3.org/2000/svg" viewBox="0 0 305 125"><path d="M130.3 114.2l-4.7-10h-3.9v12.7h2.6v-10.5l4.9 10.5h3.7v-12.7h-2.5v10zM2 106.3h3.8v10.6h2.7v-10.6h3.8v-2.1H2v2.1zm24.3 3h-4.8v-5.1h-2.7v12.7h2.7v-5.6h4.8v5.6H29v-12.7h-2.8v5.1zm132.3-5.1l-4.6 12.7h2.6l.9-2.7h5l.9 2.7h2.7l-4.4-12.7h-3.1zm-.3 7.9l1.9-5.4 1.8 5.4h-3.7zm-118.9-.7h5.4v-2.1h-5.4v-3h5.8v-2.1h-8.5v12.7h8.7v-2.1h-6v-3.4zm30.1 2l-2.7-9.2h-4.4v12.7h2.5V106l3.4 10.9h2.2L74 106v10.9h2.7v-12.7h-4.3l-2.9 9.2zm41.6-1.6c0 1.3-.1 1.8-.4 2.2-.7 1.1-2 1.1-2.5 1.1-2.6 0-2.8-1.7-2.8-3.1v-7.7h-2.7v7.6c0 1.2 0 2.2.6 3.1 1.2 1.9 3.5 2.2 4.8 2.2 2.6 0 5.6-1.2 5.6-5v-7.9h-2.6v7.5zM89.6 104c-4.6 0-6.1 3.4-6.1 6.8 0 1.2.2 3.3 1.6 4.7 1.2 1.2 2.8 1.7 4.5 1.7 1.1 0 3.1-.2 4.5-1.8 1-1.2 1.6-3.1 1.6-5 0-1.2-.3-3.2-1.6-4.8-1.2-1.3-3.1-1.6-4.5-1.6zm2.4 10c-.5.8-1.3 1.2-2.4 1.2-1.3 0-1.9-.5-2.3-1-.8-1-.9-2.3-.9-3.5 0-1.4.2-2.8.9-3.7.5-.6 1.3-1.1 2.3-1.1 1.3 0 2.4.7 2.9 2.2.3.8.3 1.6.3 2.3.1 2-.4 3-.8 3.6zm47.2-7.7h3.8v10.6h2.7v-10.6h3.8v-2.1h-10.3v2.1zm126.9-2h-3.9v12.6h2.8V112h1.8c.7 0 1.9 0 2.9-.6s1.6-1.9 1.6-3.4c0-.6-.1-1.6-.8-2.4-1.1-1.2-2.6-1.3-4.4-1.3zm-.2 5.7h-1.1v-3.6h1.4c.8 0 2.2 0 2.2 1.7 0 1.9-1.6 1.9-2.5 1.9zm-35.3 1.4h5.4v-2.1h-5.4v-3h5.8v-2.1h-8.5v12.7h8.7v-2.1h-6v-3.4zm-14.9-7.1h-3.9v12.6h2.8V112h1.8c.7 0 1.9 0 2.9-.6s1.6-1.9 1.6-3.4c0-.6-.1-1.6-.8-2.4-1-1.2-2.6-1.3-4.4-1.3zm-.1 5.7h-1.1v-3.6h1.4c.8 0 2.2 0 2.2 1.7 0 1.9-1.6 1.9-2.5 1.9zm33.4-6c-4.6 0-6.1 3.4-6.1 6.8 0 1.2.2 3.3 1.6 4.7 1.2 1.2 2.8 1.7 4.5 1.7 1.1 0 3.1-.2 4.5-1.8 1-1.2 1.6-3.1 1.6-5 0-1.2-.3-3.2-1.6-4.8-1.2-1.3-3.1-1.6-4.5-1.6zm2.4 10c-.5.8-1.3 1.2-2.4 1.2-1.3 0-1.9-.5-2.3-1-.8-1-.9-2.3-.9-3.5 0-1.4.2-2.8.9-3.7.5-.6 1.3-1.1 2.3-1.1 1.3 0 2.4.7 2.9 2.2.3.8.3 1.6.3 2.3.1 2-.4 3-.8 3.6zm44.6.8v-3.4h5.4v-2.1H296v-3h5.8v-2.1h-8.5v12.7h8.7v-2.1h-6zm-104.2-.6l-4.7-10h-3.9v12.7h2.6v-10.5l4.9 10.5h3.7v-12.7h-2.5v10zm-19 2.7h2.7v-12.7h-2.7v12.7zm108.1-12.6h-2.8v12.6h8.2v-2.2h-5.4v-10.4zM58.5 21.2c2-2 3.8-2.8 5.1-2.7 1.7.2 2 1 2.5 3 .2.7.4 1.4.7 2.2 6.4 18 25 13.7 25.2 13.6 0 0 .9-.2 2.1-.7.2-.1.4-.3.4-.6 0-.2-.2-.4-.5-.4-3.5-.2-8-1.8-14.7-12.2l-.5-.8c-2.6-4.1-4.7-7.3-11.6-6.8-3 .2-5.2 1.3-7.2 2.2-1.2.6-2.4 1.1-3.6 1.4-3.2.8-5.2.7-6.9.6-.4 0-.7 0-1-.1-7-.3-10.8-3.7-12.5-11-.1-.2-.3-.4-.5-.4-.3 0-.5.2-.6.4-.3.7-1 2.6-1.2 4.5-.8 8.3 2.2 13.5 8.3 14.2 2.4.6 9.3.6 16.5-6.4zm208.1-8.1c0-1.6-.6-3-1.7-4.1-1.1-1.1-2.5-1.6-4-1.6-1.6 0-3 .6-4.1 1.7-1.1 1.1-1.7 2.5-1.7 4.1 0 1.6.6 2.9 1.7 4s2.5 1.7 4 1.7c1.6 0 2.9-.5 4-1.6 1.2-1.2 1.8-2.5 1.8-4.2zm-5.7 5.1c-1.4 0-2.5-.5-3.4-1.5-.9-1-1.4-2.2-1.4-3.5 0-1.4.5-2.6 1.4-3.6.9-1 2.1-1.5 3.4-1.5 1.3 0 2.4.5 3.4 1.5.9 1 1.4 2.2 1.4 3.5 0 1.4-.5 2.6-1.5 3.6-.9 1-2.1 1.5-3.3 1.5zm-45.9-4c.5.8.8 2.1.8 3.9v50.5c0 1.4 1.7 2.8 5.1 4.2 3.4 1.4 6.9 2.1 10.4 2.1 7 0 12.7-2.4 17-7.2 4.3-4.8 6.4-10.6 6.4-17.3 0-6.3-1.7-11.4-5-15.4-3.3-3.9-7.3-5.9-12-5.9-3.8 0-7.2 1.2-10.1 3.6-1.7 1.4-2.9 2.8-3.7 4.3V8c0-.2 0-.4-.1-.6-.2 0-1.8.5-4.7 1.5-2.9 1-6.2 1.9-9.8 2.8v1.6l2.2-.2c1.8 0 3 .4 3.5 1.1zm8.7 28.5c0-2.1 1.1-3.9 3.2-5.3 2.2-1.4 4.4-2.1 6.6-2.1 4.5 0 7.7 2 9.7 6 2 4 3 8.4 3 13.2 0 4.7-1.1 8.8-3.2 12.1-2.1 3.3-5.4 5-9.9 5-1.7 0-3.6-.4-5.8-1.1-2.2-.7-3.4-1.9-3.7-3.6V42.7zm-19.2 26.5c-1.3 0-2.2-.6-2.6-1.9-.3-.7-.4-2-.4-3.8V44.4c0-4.2-.6-7.4-1.8-9.6-2.2-4-6.4-6-12.6-6-5.3 0-9.4 1.2-12.1 3.7-2.8 2.4-4.1 4.8-4.1 7 0 1.1.4 2.2 1.1 3.1.8.9 1.9 1.4 3.3 1.4.9 0 1.7-.2 2.4-.6 1.2-.7 1.8-1.9 1.8-3.7 0-.3-.1-.8-.2-1.7-.2-.9-.2-1.6-.2-1.9 0-1.5.7-2.7 2.2-3.5 1.5-.8 3-1.2 4.6-1.2 3.4 0 5.6 1.1 6.7 3.2.6 1.3 1 3.5 1 6.8v4.1c-8.8 3.3-14.6 5.9-17.5 7.8-4.6 3.1-6.9 6.9-6.9 11.6 0 3 1 5.4 3 7.3 2 1.9 4.4 2.9 7.1 2.9 2.6 0 5.4-.9 8.3-2.6 1.7-1 3.8-2.6 6.2-4.7.1 1.9.6 3.6 1.6 5s2.5 2.1 4.7 2.1c1.8 0 3.7-.6 5.4-1.8 1.2-.8 2.3-1.8 3.3-3.1v-2.5c-1.2.9-2 1.4-2.5 1.6-.5 0-1.1.1-1.8.1zm-10.9-6.5c0 1.8-1 3.3-2.9 4.5-1.9 1.2-3.9 1.8-6 1.8-1.5 0-2.9-.4-4.2-1.3-1.9-1.4-2.9-3.5-2.9-6.4 0-3.6 2.3-6.8 6.9-9.6 2.4-1.5 5.4-2.8 9.1-4v15zm68.2-49.4c.9-.3 1.3-.9 1.3-1.7 0-.5-.2-.9-.6-1.1-.4-.3-.9-.4-1.4-.4h-3v.3c.4 0 .6.1.7.2.1.1.1.3.1.6v4.1c0 .3 0 .5-.1.6-.1.1-.3.1-.7.2v.3h2.7v-.3c-.4 0-.6-.1-.7-.2-.1-.1-.1-.3-.1-.6v-1.7h.9c.4.6.8 1.3 1.2 1.9.3.5.6.8.8.8h1.1V16c-.5-.5-.9-.9-1.1-1.2l-1.1-1.5zm-1.1-.1h-.7v-2.8h.7c.9 0 1.3.4 1.3 1.3s-.4 1.5-1.3 1.5zM128.6 72.3c-3.7-.3-6.1-1-7.2-1.9-1.1-1-1.6-3.3-1.6-6.9V44.2l5.4-.2 23.3 30h15.8v-1.8c-1.9-.2-3.5-.6-4.8-1.3-1.2-.7-2.5-1.8-3.7-3.3l-20.1-24.8c5.4-.8 9.7-2.5 12.9-5.2 3.2-2.6 4.7-6.4 4.7-11.2 0-7.3-3.6-12.2-10.7-14.9-3.8-1.4-8.5-2.1-14.1-2.1h-27.1v1.8c3.5.3 5.8 1 6.9 2 1 1.1 1.6 3.3 1.6 6.8v42.4c0 4.1-.5 6.7-1.4 7.8-.9 1.1-3.3 1.8-7 2.2V74h27.2v-1.7zm-8.8-55.8c0-1.5.3-2.4.9-2.8.6-.4 2.3-.6 5.1-.6 4.1 0 7.4.6 9.9 1.7 4.6 2.1 7 5.9 7 11.6 0 5.9-2.6 9.9-7.8 12-3 1.2-8.1 1.9-15.1 2.2V16.5zm-19.3 44c-3.5-.2-8-1.8-14.7-12.2l-.5-.8c-2.6-4.1-4.7-7.3-11.6-6.8-3 .2-5.2 1.3-7.2 2.2-1.2.6-2.4 1.1-3.6 1.4-3.2.8-5.2.7-6.9.6-.4 0-.7 0-1-.1-7-.3-10.8-3.7-12.5-11-.1-.2-.3-.4-.5-.4-.3 0-.5.2-.6.4-.3.7-1 2.6-1.2 4.5-.8 8.3 2.2 13.4 8.3 14.2 2.6.3 9.5.4 16.7-6.6 2-2 3.8-2.8 5.1-2.7 1.7.2 2 1 2.5 3 .2.7.4 1.4.7 2.2C79.9 66.3 98.6 62 98.8 61.9c0 0 .9-.2 2.1-.7.2-.1.4-.3.4-.6-.4.1-.6-.1-.8-.1z"/></svg>
