<svg viewBox="0 0 1190 194.69" xmlns="http://www.w3.org/2000/svg" data-name="Calque 1" id="Calque_1">
  <defs>
    <style>
      .cls-1 {
        fill: #ffffff;
      }
    </style>
  </defs>
  <path d="M191.88,66.48h-63.67V2.81c0-1.56-1.25-2.81-2.78-2.81h-56.18c-1.56,0-2.78,1.25-2.78,2.81v63.67H2.81c-1.56,0-2.81,1.25-2.81,2.78v56.18c0,1.53,1.25,2.78,2.81,2.78h63.67v63.67c0,1.56,1.21,2.81,2.78,2.81h56.14c1.53,0,2.78-1.25,2.78-2.81v-63.67h63.67c1.56,0,2.81-1.25,2.81-2.78v-56.18c.03-1.53-1.21-2.78-2.78-2.78Z" class="cls-1"></path>
  <path d="M771.26,29.74h-22.48c-2.5,0-3.99,1.49-3.99,3.99v126.96c0,2.5,1.49,3.99,3.99,3.99h22.48c2.5,0,4.02-1.49,4.02-3.99V33.73c-.03-2.5-1.53-3.99-4.02-3.99Z" class="cls-1"></path>
  <path d="M962.62,135.29h-109.19l105.69-80.57c1.49-1.49,2.5-1.98,2.5-5v-16c0-2.5-1.49-3.99-4.02-3.99h-152.95c-.31,0-.56.1-.83.14s-.59.03-.83.14c-.03,0-.03.03-.03.03-.94.35-1.63,1.04-1.98,2.01-.17.49-.28,1.08-.28,1.7v21.41c0,2.5,1.49,3.99,3.99,3.99h97.74l-104.2,80.53c-2.01,1.49-2.01,2.5-2.01,5v16c0,2.5,1.53,4.02,3.99,4.02h162.45c2.5,0,3.99-1.49,3.99-3.99v-21.41c-.03-2.5-1.53-4.02-4.02-4.02Z" class="cls-1"></path>
  <path d="M726.88,29.74h-26.47c-2.98,0-3.5,1.01-4.48,2.98l-42.5,87.96-38.48-87.96c-1.01-1.98-1.49-2.98-4.51-2.98h-22.52c-2.98,0-3.5,1.01-4.48,2.98l-36.99,87.96-40.49-87.96c-1.01-1.98-1.49-2.98-4.48-2.98h-29.49c-3.02,0-3.99,2.01-3.02,4.51l61,127.44c1.01,1.98,1.49,2.98,4.48,2.98h23.49c3.02,0,3.5-1.01,4.48-2.98l35.5-83.48,37.47,83.48c1.01,1.98,1.53,2.98,4.51,2.98h23.49c3.02,0,3.5-1.01,4.51-2.98l61.48-127.44c1.46-2.5.49-4.51-2.5-4.51Z" class="cls-1"></path>
  <path d="M1188.99,159.23l-91.12-126.99c-1.01-1.49-1.98-2.5-4.48-2.5h-20.99c-3.02,0-3.19.59-4.51,2.5l-86.43,127.44c-2.01,2.5-1.01,5,2.5,5h29.01c2.01,0,3.5-.52,4.51-2.5l17.8-26.89h97.5l18.29,26.93c1.01,1.49,2.5,2.5,4.51,2.5h30.99c3.44-.49,4.41-2.5,2.43-5.48ZM1082.88,65.2l29.11,40.67h-56.9l27.79-40.67Z" class="cls-1"></path>
  <path d="M1173.48,59.82c9.09,0,16.48-6.9,16.48-15.37s-7.39-15.27-16.48-15.27-16.41,6.87-16.41,15.27,7.36,15.37,16.41,15.37ZM1173.48,33.03c6.77,0,12.25,5.14,12.25,11.42s-5.48,11.42-12.25,11.42-12.25-5.1-12.25-11.42,5.45-11.42,12.25-11.42Z" class="cls-1"></path>
  <path d="M1166.16,50.52h2.81c.21,0,.28-.1.28-.35v-3.12h6.04l2.91,3.26c.1.14.24.21.42.21h3.5c.28,0,.38-.21.24-.45l-3.4-3.78c1.32-.73,2.08-1.91,2.08-3.4,0-2.64-1.94-4.44-4.96-4.44h-9.96c-.24,0-.35.1-.35.35v11.38c.03.24.14.35.38.35ZM1169.28,41.19h6.28c1.35,0,2.05.56,2.05,1.67,0,1.01-.66,1.49-2.05,1.49h-6.28v-3.16Z" class="cls-1"></path>
  <path d="M417.9,81.54h-87.72c-6.14,0-11.1-5.14-11.1-11.28s4.96-11.1,11.1-11.1h119.36c2.5,0,4.02-1.49,4.02-3.99v-21.44c0-2.5-1.53-3.99-4.02-3.99h-120.4c-22.38,0-40.53,18.15-40.53,40.53s18.18,40.21,40.56,40.21h87.99c6.77,0,12.25,5.79,12.25,12.56s-5.48,12.25-12.25,12.25h-120.02c-2.5,0-4.02,1.53-4.02,3.99v21.41c0,2.5,1.53,4.02,4.02,4.02h120.75c23,0,41.67-18.67,41.67-41.67s-18.67-41.5-41.67-41.5Z" class="cls-1"></path>
</svg>